<svg xmlns="http://www.w3.org/2000/svg" viewBox="0 0 960 540" width="960" height="540">
  <defs>
    <linearGradient id="sky" x1="0" y1="0" x2="0" y2="1">
      <stop offset="0" stop-color="#cfd6dc"/>
      <stop offset="1" stop-color="#8a939c"/>
    </linearGradient>
    <linearGradient id="warm" x1="0" y1="0" x2="0" y2="1">
      <stop offset="0" stop-color="#d8cfc4"/>
      <stop offset="1" stop-color="#9a8f82"/>
    </linearGradient>
  </defs>
  
  <rect width="960" height="540" fill="#efe8dc"/>
  <rect x="200" y="60" width="70" height="110" fill="#c4a574"/>
  <rect x="360" y="60" width="70" height="110" fill="#8fa3b0"/>
  <rect x="520" y="60" width="70" height="110" fill="#c4a574"/>
  <rect x="680" y="60" width="70" height="110" fill="#8fa3b0"/>
  
  <g transform="translate(280 400) scale(1,1)">
    <circle cx="0" cy="-65.0" r="17.5" fill="#222"/>
    <rect x="-20.0" y="-47.5" width="40.0" height="55.0" rx="8" fill="#222"/>
    <rect x="-17.5" y="7.5" width="12.5" height="45.0" fill="#222"/>
    <rect x="5.0" y="7.5" width="12.5" height="45.0" fill="#222"/>
  </g>
  
  <g transform="translate(760 240) scale(-1,1)">
    <circle cx="0" cy="-39.0" r="10.5" fill="#333"/>
    <rect x="-12.0" y="-28.5" width="24.0" height="33.0" rx="8" fill="#333"/>
    <rect x="-10.5" y="4.5" width="7.5" height="27.0" fill="#333"/>
    <rect x="3.0" y="4.5" width="7.5" height="27.0" fill="#333"/>
  </g>
  <path d="M280 400 L700 260" stroke="#111" stroke-width="3" stroke-dasharray="8 8" fill="none"/>

</svg>
